<svg width="29" height="22" viewBox="0 0 29 22" fill="none" xmlns="http://www.w3.org/2000/svg">
<path d="M11.5631 20.8956L11.5545 20.8921L11.5274 20.8781C11.369 20.7955 11.2118 20.7107 11.056 20.6238C9.18254 19.5685 7.43172 18.3288 5.83262 16.9253C3.00062 14.4205 0 10.7034 0 6.12524C0 2.70915 3.03262 8.27786e-05 6.69292 8.27786e-05C7.71047 -0.00464167 8.71604 0.208152 9.63486 0.622638C10.5537 1.03712 11.3621 1.64264 12 2.39414C12.638 1.64248 13.4467 1.03688 14.3657 0.622384C15.2847 0.207892 16.2906 -0.00481735 17.3083 8.27786e-05C20.9674 8.27786e-05 24 2.70915 24 6.12524C24 10.7045 20.9994 14.4216 18.1674 16.9242C16.5683 18.3277 14.8175 19.5674 12.944 20.6226C12.7882 20.7099 12.631 20.7951 12.4726 20.8781L12.4455 20.8921L12.4369 20.8968L12.4332 20.8979C12.2998 20.965 12.151 21 12 21C11.849 21 11.7002 20.965 11.5668 20.8979L11.5631 20.8956Z" fill="white"/>
<path d="M20.8933 18.9649L24.0833 12.7316H21.8833V8.69823L18.5833 14.9316H20.8933V18.9649ZM21.3333 21.1649C20.3189 21.1649 19.3656 20.9724 18.4733 20.5874C17.5811 20.2024 16.805 19.6799 16.145 19.0199C15.485 18.3599 14.9625 17.5838 14.5775 16.6916C14.1925 15.7993 14 14.846 14 13.8316C14 12.8171 14.1925 11.8638 14.5775 10.9716C14.9625 10.0793 15.485 9.30323 16.145 8.64323C16.805 7.98323 17.5811 7.46073 18.4733 7.07573C19.3656 6.69073 20.3189 6.49823 21.3333 6.49823C22.3478 6.49823 23.3011 6.69073 24.1933 7.07573C25.0856 7.46073 25.8617 7.98323 26.5217 8.64323C27.1817 9.30323 27.7042 10.0793 28.0892 10.9716C28.4742 11.8638 28.6667 12.8171 28.6667 13.8316C28.6667 14.846 28.4742 15.7993 28.0892 16.6916C27.7042 17.5838 27.1817 18.3599 26.5217 19.0199C25.8617 19.6799 25.0856 20.2024 24.1933 20.5874C23.3011 20.9724 22.3478 21.1649 21.3333 21.1649Z" fill="#894189"/>
<path d="M21.2667 18.4982L24.1667 12.8315H22.1667V9.16486L19.1667 14.8315H21.2667V18.4982ZM21.6667 20.4982C20.7444 20.4982 19.8778 20.3232 19.0667 19.9732C18.2556 19.6232 17.55 19.1482 16.95 18.5482C16.35 17.9482 15.875 17.2426 15.525 16.4315C15.175 15.6204 15 14.7537 15 13.8315C15 12.9093 15.175 12.0426 15.525 11.2315C15.875 10.4204 16.35 9.71486 16.95 9.11486C17.55 8.51486 18.2556 8.03986 19.0667 7.68986C19.8778 7.33986 20.7444 7.16486 21.6667 7.16486C22.5889 7.16486 23.4556 7.33986 24.2667 7.68986C25.0778 8.03986 25.7833 8.51486 26.3833 9.11486C26.9833 9.71486 27.4583 10.4204 27.8083 11.2315C28.1583 12.0426 28.3333 12.9093 28.3333 13.8315C28.3333 14.7537 28.1583 15.6204 27.8083 16.4315C27.4583 17.2426 26.9833 17.9482 26.3833 18.5482C25.7833 19.1482 25.0778 19.6232 24.2667 19.9732C23.4556 20.3232 22.5889 20.4982 21.6667 20.4982Z" fill="white"/>
</svg>
